        <svg xmlns="http://www.w3.org/2000/svg" fill="none" viewBox="0 0 100 100">
            <g clip-path="url(#a)">
                <path fill="url(#b)"
                    d="M33.3 3h29.6L32.2 94.1c-.2.5-.4.9-.7 1.3s-.6.7-1 1-.8.5-1.3.7-1 .2-1.4.2h-23c-.7 0-1.5-.2-2.2-.5S1.4 96 .9 95.4c-.4-.6-.7-1.3-.8-2.1-.1-.7 0-1.5.2-2.2L28.9 6.2c.2-.5.4-.9.7-1.3s.6-.7 1-1 .8-.5 1.3-.7c.5-.1.9-.2 1.4-.2" />
                <path fill="#ab694b"
                    d="M87.9 97.3H61.3c-.3 0-.6 0-.9-.1s-.6-.1-.9-.2-.5-.2-.8-.4-.5-.3-.7-.5L27.9 67.8c-.3-.3-.5-.7-.6-1.1s-.1-.9.1-1.3.4-.8.8-1 .8-.4 1.2-.4h46.9z" />
                <path fill="url(#c)"
                    d="M63 3 42.3 64.1h33.8l11.6 33.2H61.3c-.3 0-.5 0-.8-.1-.3 0-.5-.1-.8-.2-.5-.2-1-.5-1.4-.8l-20.4-19L32.2 94c-.1.4-.4.8-.6 1.2-.5.7-1.2 1.3-2 1.7-.4.2-.8.3-1.3.4H4.7c-.8 0-1.5-.2-2.2-.5s-1.2-.9-1.7-1.5C.4 94.7.1 94 0 93.2c-.1-.7 0-1.5.2-2.2L28.9 6.3c.1-.5.3-.9.6-1.3s.6-.8 1-1.1.8-.5 1.3-.7 1-.2 1.5-.2z" />
                <path fill="url(#d)"
                    d="M99.8 91.1c.2.7.3 1.5.2 2.2s-.4 1.4-.8 2.1c-.4.6-1 1.1-1.7 1.4s-1.4.5-2.2.5h-33c.7 0 1.5-.2 2.2-.5s1.2-.8 1.7-1.4c.4-.6.7-1.3.8-2.1.1-.7 0-1.5-.2-2.2L38.2 6.2c-.3-.9-.9-1.7-1.7-2.3-.4-.3-.8-.5-1.3-.7s-1-.2-1.4-.2h33c.5 0 1 .1 1.4.2.5.2.9.4 1.3.7s.7.6 1 1 .5.8.7 1.3z" />
            </g>
            <defs>
                <linearGradient id="b" x1="44.131" x2="13.379" y1="9.988" y2="100.832" gradientUnits="userSpaceOnUse">
                    <stop stop-color="#744833" />
                    <stop offset="1" stop-color="#975d42" />
                </linearGradient>
                <linearGradient id="c" x1="53.728" x2="46.615" y1="52.325" y2="54.737" gradientUnits="userSpaceOnUse">
                    <stop stop-opacity=".3" />
                    <stop offset=".1" stop-opacity=".2" />
                    <stop offset=".3" stop-opacity=".1" />
                    <stop offset=".6" stop-opacity=".1" />
                    <stop offset="1" stop-opacity="0" />
                </linearGradient>
                <linearGradient id="d" x1="50.025" x2="83.778" y1="7.256" y2="97.174" gradientUnits="userSpaceOnUse">
                    <stop stop-color="#efb093" />
                    <stop offset="1" stop-color="#e38c64" />
                </linearGradient>
                <clipPath id="a">
                    <path fill="#fff" d="M0 0h100v100H0z" />
                </clipPath>
            </defs>
        </svg>