        <svg xmlns="http://www.w3.org/2000/svg" fill="none" viewBox="0 0 100 100">
            <path fill="url(#a)"
                d="M11.03 20.41C10.84 14.99 15.06 10 20.77 10h58.47c5.71 0 9.93 5 9.74 10.41-.18 5.2.05 11.95 1.75 17.44 1.7 5.51 4.57 9 9.27 9.45v5.08c-4.7.45-7.57 3.93-9.27 9.45-1.7 5.5-1.93 12.24-1.75 17.44.19 5.42-4.03 10.41-9.74 10.41H20.77c-5.71 0-9.93-5-9.74-10.41.18-5.2-.05-11.95-1.75-17.44-1.7-5.51-4.58-9-9.28-9.45V47.3c4.7-.45 7.58-3.93 9.28-9.45 1.7-5.5 1.93-12.24 1.75-17.44" />
            <path fill="url(#b)"
                d="M52.17 71.03c9.24 0 14.8-4.52 14.8-11.98 0-5.64-3.97-9.72-9.87-10.37v-.24c4.33-.7 7.73-4.73 7.73-9.22 0-6.4-5.06-10.57-12.76-10.57H34.74v42.38zM41.49 34.02h8.97c4.87 0 7.64 2.17 7.64 6.11 0 4.2-3.22 6.55-9.06 6.55h-7.55zm0 31.63V51.7h8.91c6.38 0 9.69 2.35 9.69 6.93s-3.22 7.02-9.3 7.02z" />
            <path stroke="#fff" stroke-width=".2"
                d="M52.17 71.03c9.24 0 14.8-4.52 14.8-11.98 0-5.64-3.97-9.72-9.87-10.37v-.24c4.33-.7 7.73-4.73 7.73-9.22 0-6.4-5.06-10.57-12.76-10.57H34.74v42.38zM41.49 34.02h8.97c4.87 0 7.64 2.17 7.64 6.11 0 4.2-3.22 6.55-9.06 6.55h-7.55zm0 31.63V51.7h8.91c6.38 0 9.69 2.35 9.69 6.93s-3.22 7.02-9.3 7.02z" />
            <defs>
                <linearGradient id="a" x1="10.07" x2="97.45" y1="18.14" y2="87.5" gradientUnits="userSpaceOnUse">
                    <stop stop-color="#925a40" />
                    <stop offset="1" stop-color="#7f4f38" />
                </linearGradient>
                <linearGradient id="b" x1="36.94" x2="56.48" y1="31.93" y2="64.97" gradientUnits="userSpaceOnUse">
                    <stop stop-color="#fefbf9" />
                    <stop offset="1" stop-color="#fbede7" />
                </linearGradient>
            </defs>
        </svg>