        <svg xmlns="http://www.w3.org/2000/svg" fill="none" viewBox="0 0 100 100">
            <g clip-path="url(#a)">
                <path fill="#eb9d7a"
                    d="M94.1 29.1c0-1.7-.4-3.1-1.1-4.4-.7-1.2-1.8-2.3-3.2-3.1C78.1 14.8 66.4 8.1 54.6 1.3c-3.2-1.8-6.2-1.8-9.4.1-4.7 2.8-28 16.1-35 20.2Q6 24.15 6 29.1v40.8c0 1.6.3 3.1 1 4.3.7 1.3 1.8 2.3 3.2 3.2 7 4 30.3 17.4 35 20.2 3.1 1.9 6.2 1.9 9.4.1 11.7-6.8 23.5-13.5 35.2-20.3 1.5-.8 2.5-1.9 3.2-3.2.7-1.2 1-2.7 1-4.3.1 0 .1-27.2.1-40.8" />
                <path fill="#2a1a12"
                    d="M50.2 49.4 7 74.2c.7 1.3 1.8 2.3 3.2 3.2 7 4 30.3 17.4 35 20.2 3.1 1.9 6.2 1.9 9.4.1 11.7-6.8 23.5-13.5 35.2-20.3 1.5-.8 2.5-1.9 3.2-3.2z" />
                <path fill="#3c251a" d="M94.1 29.1c0-1.7-.4-3.1-1.1-4.4L50.2 49.4l42.9 24.8c.7-1.2 1-2.7 1-4.3z" />
                <path fill="#fff"
                    d="M75.6 40.1v4.6h4.6v-4.6h2.3v4.6h4.6V47h-4.6v4.6h4.6V54h-4.6v4.6h-2.3V54h-4.6v4.6h-2.3V54h-4.6v-2.3h4.6v-4.6h-4.6v-2.3h4.6v-4.6h2.3zm4.6 7h-4.6v4.6h4.6z" />
                <path fill="#fff"
                    d="M50.3 16.8c12.1 0 22.7 6.6 28.4 16.4l-.1-.2-14.3 8.2c-2.8-4.8-8-8-13.9-8h-.2c-9 0-16.3 7.3-16.3 16.3 0 2.8.7 5.6 2.2 8.1 2.8 4.9 8.1 8.2 14.2 8.2s11.4-3.4 14.2-8.3l-.1.1 14.2 8.2c-5.6 9.7-16 16.3-28 16.4h-.4c-12.2 0-22.8-6.6-28.4-16.5-2.8-4.8-4.3-10.4-4.3-16.3 0-18 14.7-32.6 32.8-32.6" />
            </g>
            <defs>
                <clipPath id="a">
                    <path fill="#fff" d="M0 0h100v100H0z" />
                </clipPath>
            </defs>
        </svg>