        <svg xmlns="http://www.w3.org/2000/svg" fill="none" viewBox="0 0 100 100">
            <g clip-path="url(#a)">
                <path fill="#000" d="M100 0H0v100h100z" />
                <path fill="#83513a" d="M100 0H0v100h100z" />
                <path fill="#fff"
                    d="M17.82 63.89c-.71 0-1.31-.24-1.8-.71-.5-.48-.74-1.06-.74-1.72s.25-1.26.74-1.74a2.5 2.5 0 0 1 1.8-.73c.7 0 1.33.24 1.82.73.51.48.76 1.06.76 1.74s-.25 1.24-.76 1.72c-.49.47-1.1.71-1.82.71m28.27-.4h-4.6l-12.11-19.1c-.31-.48-.56-.98-.76-1.5h-.11c.1.56.14 1.75.14 3.57V63.5h-4.07V37.51h4.9l11.7 18.65c.5.77.81 1.31.95 1.59h.07c-.12-.69-.18-1.85-.18-3.5V37.5h4.05v25.99zm19.8 0H51.66V37.5h13.66v3.66h-9.46v7.36h8.71v3.64h-8.71v7.68h10.02v3.64zm20.22-22.33h-7.28v22.33h-4.21V41.16h-7.27V37.5h18.76z" />
            </g>
            <defs>
                <clipPath id="a">
                    <path fill="#fff" d="M0 0h100v100H0z" />
                </clipPath>
            </defs>
        </svg>