        <svg xmlns="http://www.w3.org/2000/svg" fill="none" viewBox="0 0 100 100">
            <path fill="#281912"
                d="M50 1C22.4 1 0 23.4 0 51c0 22.1 14.3 40.8 34.2 47.4 2.5.5 3.4-1.1 3.4-2.4 0-1.2 0-5.1-.1-9.3-13.9 3-16.8-5.9-16.8-5.9-2.3-5.8-5.6-7.3-5.6-7.3-4.5-3.1.3-3 .3-3 5 .4 7.7 5.2 7.7 5.2 4.5 7.6 11.7 5.4 14.6 4.2.4-3.2 1.7-5.4 3.2-6.7-11.1-1.3-22.8-5.6-22.8-24.7 0-5.5 2-9.9 5.2-13.4-.5-1.3-2.2-6.3.5-13.2 0 0 4.2-1.3 13.8 5.1 4-1.1 8.3-1.7 12.5-1.7s8.5.6 12.5 1.7c9.5-6.5 13.7-5.1 13.7-5.1 2.7 6.9 1 12 .5 13.2 3.2 3.5 5.1 8 5.1 13.4 0 19.2-11.7 23.4-22.8 24.7 1.8 1.6 3.4 4.6 3.4 9.3 0 6.7-.1 12.1-.1 13.7 0 1.3.9 2.9 3.4 2.4C85.7 91.8 100 73.1 100 51c0-27.6-22.4-50-50-50" />
            <path fill="#281912"
                d="M18.7 72.2c-.1.2-.5.3-.9.2-.4-.2-.6-.5-.4-.8.1-.3.5-.3.9-.2.3.2.6.6.4.8m2.5 2.2c-.2.2-.7.1-1-.2s-.4-.8-.1-1c.2-.2.7-.1 1 .2s.3.8.1 1m1.7 2.8c-.3.2-.8 0-1.1-.4s-.3-1 0-1.2.8 0 1.1.4c.3.5.3 1 0 1.2m2.8 3.3c-.3.3-.9.2-1.3-.2s-.6-1-.3-1.3.9-.2 1.3.2c.5.4.6 1 .3 1.3m3.7 1.1c-.1.4-.7.6-1.2.4-.6-.2-.9-.6-.8-1s.7-.6 1.3-.4c.5.1.8.6.7 1m4.2.4c0 .4-.5.8-1.1.8s-1.1-.3-1.1-.7.5-.8 1.1-.8 1.1.3 1.1.7m4.1-.1c.1.4-.3.8-.9.9s-1.1-.1-1.2-.5.3-.8.9-.9c.6-.2 1.2.1 1.2.5" />
        </svg>