        <svg xmlns="http://www.w3.org/2000/svg" fill="none" viewBox="0 0 100 100">
            <path fill="#1b110c"
                d="M17.7 1h64.6C92.1 1 100 8.9 100 18.7v62.1c0 9.8-7.9 17.7-17.7 17.7H17.7C7.9 98.5 0 90.6 0 80.8V18.7C0 8.9 7.9 1 17.7 1" />
            <path fill="#efb295"
                d="M48.5 59.5H33l-3.2 9.8c-.1.4-.4.6-.8.6h-7.8c-.5 0-.6-.2-.5-.8l13.4-38.6c.1-.4.2-.9.4-1.4.2-.9.2-1.8.2-2.7 0-.2.1-.4.3-.5h10.8c.3 0 .5.1.5.3l15.2 42.9c.1.5 0 .7-.4.7h-8.7c-.3 0-.6-.2-.7-.5zM35.4 51H46c-.2-.9-.6-1.9-1-3s-.8-2.3-1.1-3.6c-.4-1.3-.8-2.5-1.2-3.8s-.8-2.5-1.1-3.7-.6-2.2-.9-3.2h-.1c-.4 1.8-.8 3.6-1.4 5.4-.6 2-1.2 4.1-1.9 6.2-.7 2-1.3 4-1.9 5.7m35.4-17.9c-1.4 0-2.7-.5-3.7-1.5s-1.5-2.4-1.4-3.8c0-1.4.5-2.8 1.5-3.7 1-1 2.3-1.5 3.7-1.5 1.6 0 2.9.5 3.8 1.5s1.4 2.3 1.4 3.7-.5 2.8-1.5 3.8-2.4 1.6-3.8 1.5m-4.7 36.1v-32c0-.4.2-.6.5-.6h8.2c.4 0 .5.2.5.6v32.1c0 .5-.2.7-.5.7h-8.2c-.3-.1-.5-.3-.5-.8" />
        </svg>