        <svg xmlns="http://www.w3.org/2000/svg" fill="none" viewBox="0 0 100 100">
            <path fill="#2c1b13"
                d="M17.7 1h64.6C92.1 1 100 8.9 100 18.7v62.1c0 9.8-7.9 17.7-17.7 17.7H17.7C7.9 98.5 0 90.6 0 80.8V18.7C0 8.9 7.9 1 17.7 1" />
            <path fill="#eb9c77"
                d="M22.5 69.4V26.5c0-.3.1-.5.4-.5h2.3c1 0 2 0 3.2-.1 1.1 0 2.3 0 3.6-.1h3.8c3.4 0 6.2.4 8.6 1.3 2.1.7 4 1.9 5.6 3.4 1.3 1.3 2.4 3 3 4.8s1 3.5 1 5.4c0 3.6-.8 6.5-2.5 8.9-1.7 2.3-4 4.1-6.7 5.1-2.8 1-6 1.4-9.4 1.4h-3.9v13.4c0 .3-.2.5-.5.6h-8c-.3-.2-.5-.3-.5-.7m9.1-35.3v14c.6 0 1.1.1 1.6.1h2.2c1.6 0 3.2-.2 4.8-.8 1.3-.4 2.5-1.2 3.4-2.2s1.3-2.5 1.3-4.3c0-1.3-.3-2.6-1-3.7s-1.7-1.9-2.9-2.4c-1.5-.6-3.2-.9-4.9-.8h-2.8c-.8 0-1.4 0-1.7.1M80 45.5c-1.2-.7-2.6-1.1-4-1.4-1.5-.3-3.1-.5-4.7-.5-.8 0-1.7.1-2.5.3-.5.1-1 .4-1.3.8-.2.3-.3.8-.3 1.1 0 .4.2.8.4 1.1.4.5.9.8 1.4 1.1 1 .5 2 1 3 1.4 2.2.8 4.4 1.8 6.4 3 1.4.9 2.5 2 3.3 3.5.7 1.3 1 2.8 1 4.3 0 2-.5 3.9-1.6 5.5-1.2 1.7-2.8 3-4.7 3.7-2 .9-4.5 1.3-7.5 1.3-1.9 0-3.8-.2-5.7-.5-1.5-.2-2.9-.7-4.2-1.3-.3-.2-.5-.5-.5-.8v-7.3c0-.1 0-.3.2-.4.1-.1.2 0 .4 0 1.6 1 3.3 1.6 5.2 2 1.6.4 3.2.6 4.9.6 1.6 0 2.7-.2 3.5-.6.7-.3 1.1-1 1.1-1.8 0-.6-.3-1.1-1-1.7-.7-.5-2-1.2-4.1-2s-4.1-1.8-5.9-3c-1.3-.9-2.4-2.1-3.2-3.5-.7-1.3-1-2.8-1-4.3 0-1.8.5-3.5 1.4-5 1-1.7 2.6-3 4.4-3.8 2-1 4.4-1.5 7.4-1.5 1.7 0 3.5.1 5.2.4 1.2.2 2.5.5 3.6 1 .2 0 .3.2.4.4 0 .2.1.3.1.5v6.8c0 .2-.1.3-.2.4-.5.3-.7.3-.9.2" />
        </svg>