<svg xmlns="http://www.w3.org/2000/svg" fill="none" widht="512" viewBox="50.34 -0.32 411.6 512.63">            <path d="M0 0 C1.42590325 0.00222313 2.85180657 0.00439962 4.27770996 0.00653076 C24.8200524 0.04905826 45.13178305 0.36788727 65.5 3.3125 C66.20312317 3.41195923 66.90624634 3.51141846 67.63067627 3.6138916 C110.94720764 9.75850028 167.87235119 18.60114507 197.5 54.3125 C202.35187549 61.21830119 205.7392233 67.72638586 205.76742554 76.31964111 C205.78022049 78.08992928 205.78022049 78.08992928 205.79327393 79.89598083 C205.79236755 81.17715286 205.79146118 82.45832489 205.79052734 83.77832031 C205.79651705 85.15212874 205.80332362 86.52593381 205.81088257 87.8997345 C205.82850713 91.62102445 205.83323651 95.34222234 205.83451414 99.06355 C205.83593858 101.39239005 205.84021377 103.72120692 205.84550858 106.0500412 C205.8639988 114.18588234 205.87218066 122.32165807 205.87060547 130.45751953 C205.8694051 138.02268495 205.89048925 145.5875646 205.9220928 153.15265775 C205.94831156 159.66244884 205.95897039 166.17214694 205.95769465 172.68199039 C205.95718656 176.56341785 205.96278435 180.44459134 205.98405075 184.32596588 C206.00352741 187.98032908 206.00349412 191.63419853 205.98901749 195.28857994 C205.98595569 197.25471282 206.00254062 199.22084625 206.01989746 201.18690491 C205.91993632 215.3842066 200.54614132 224.09048884 191.0625 234.1875 C183.11459722 241.94446218 167.18359615 255.3125 155.5 255.3125 C155.5 255.9725 155.5 256.6325 155.5 257.3125 C156.69625 257.6425 157.8925 257.9725 159.125 258.3125 C170.05248135 261.97793863 179.94813695 268.70458229 188.5 276.3125 C189.78197266 277.41851562 189.78197266 277.41851562 191.08984375 278.546875 C199.5005013 286.28720947 205.59901154 295.74257021 206.37542725 307.30618286 C206.41034142 309.7860702 206.40813328 312.2666835 206.37402344 314.74658203 C206.38025568 316.12819004 206.38949351 317.50978717 206.40145874 318.89135742 C206.42456181 322.59834431 206.4044356 326.30387727 206.3744154 330.01076746 C206.34898645 333.91553754 206.35984292 337.82024098 206.36529541 341.72506714 C206.3688648 348.27641994 206.34450657 354.82720667 206.30273438 361.37841797 C206.25492937 368.9234028 206.24971708 376.46749482 206.2676847 384.01258957 C206.2842273 391.31159851 206.272261 398.61029196 206.24695587 405.90926743 C206.23662658 408.99752546 206.23570997 412.08556584 206.24260712 415.17383194 C206.24932332 418.81703313 206.23073659 422.4593007 206.19359207 426.10231018 C206.17930495 428.05597915 206.1890611 430.00977909 206.19985962 431.96347046 C206.01254352 445.09558348 201.59891795 454.30695576 192.515625 463.49609375 C161.19272209 493.39062366 112.51027818 502.49190883 71.25 508.5625 C70.23647461 508.71356201 69.22294922 508.86462402 68.17871094 509.02026367 C45.85825735 512.10524685 23.50100938 512.68711385 1 512.625 C-0.42590325 512.62277687 -1.85180657 512.62060038 -3.27770996 512.61846924 C-23.81817709 512.57594563 -44.13449641 512.26663423 -64.5 509.3125 C-65.21254944 509.2106842 -65.92509888 509.10886841 -66.65924072 509.00396729 C-86.17380876 506.20237348 -105.55202588 502.84600838 -124.5 497.3125 C-125.46728027 497.03212891 -126.43456055 496.75175781 -127.43115234 496.46289062 C-154.52900642 488.43586568 -186.35378378 476.46112787 -201.30859375 450.76953125 C-203.65335709 445.93393734 -204.74978808 441.67951271 -204.76742554 436.30535889 C-204.77595551 435.12516678 -204.78448547 433.94497467 -204.79327393 432.72901917 C-204.79236755 431.44784714 -204.79146118 430.16667511 -204.79052734 428.84667969 C-204.79651705 427.47287126 -204.80332362 426.09906619 -204.81088257 424.7252655 C-204.82850713 421.00397555 -204.83323651 417.28277766 -204.83451414 413.56145 C-204.83593858 411.23260995 -204.84021377 408.90379308 -204.84550858 406.5749588 C-204.8639988 398.43911766 -204.87218066 390.30334193 -204.87060547 382.16748047 C-204.8694051 374.60231505 -204.89048925 367.0374354 -204.9220928 359.47234225 C-204.94831156 352.96255116 -204.95897039 346.45285306 -204.95769465 339.94300961 C-204.95718656 336.06158215 -204.96278435 332.18040866 -204.98405075 328.29903412 C-205.00352741 324.64467092 -205.00349412 320.99080147 -204.98901749 317.33642006 C-204.98595569 315.37028718 -205.00254062 313.40415375 -205.01989746 311.43809509 C-204.93096381 298.80700736 -200.7738343 289.7954825 -192.5 280.3125 C-184.19457481 272.19001369 -166.72059913 257.3125 -154.5 257.3125 C-154.5 256.6525 -154.5 255.9925 -154.5 255.3125 C-155.69625 254.9825 -156.8925 254.6525 -158.125 254.3125 C-169.18821587 250.60153153 -178.69856831 243.80516861 -187.5 236.3125 C-189.046875 235.1678125 -189.046875 235.1678125 -190.625 234 C-197.64166622 227.44094245 -203.84490482 219.14513001 -204.78384399 209.35201263 C-204.90404923 205.75160381 -204.92816854 202.1620007 -204.91992188 198.55957031 C-204.92727251 197.17885659 -204.93586161 195.79814899 -204.94558716 194.41744995 C-204.9677116 190.68577707 -204.9707383 186.95432562 -204.96883965 183.22259617 C-204.96871948 180.09676324 -204.97730255 176.97097644 -204.98561716 173.84515643 C-205.00481997 166.46314556 -205.00774705 159.08124775 -205.00097656 151.69921875 C-204.99434351 144.11011795 -205.01717732 136.52150412 -205.05429029 128.93250203 C-205.08509066 122.39459939 -205.09633602 115.85685253 -205.09245348 109.31887889 C-205.09039599 105.4239564 -205.09570837 101.52941274 -205.12034607 97.63455963 C-205.1427817 93.96692978 -205.14059828 90.30008511 -205.12041855 86.6324501 C-205.11544009 84.66433175 -205.13490685 82.69619762 -205.15542603 80.72817993 C-205.03232582 67.55203344 -200.62621495 58.34565932 -191.515625 49.12890625 C-160.50643824 19.53378655 -111.78031953 9.84004843 -70.8125 4.0625 C-69.21498901 3.83590698 -69.21498901 3.83590698 -67.58520508 3.60473633 C-45.10491046 0.64200962 -22.65017 -0.06252561 0 0 Z M-10.1796875 128.36669922 C-42.60682682 129.10319094 -74.53186864 132.68272501 -106.25 139.5 C-106.97687012 139.65460693 -107.70374023 139.80921387 -108.45263672 139.96850586 C-112.37522214 140.85667534 -112.37522214 140.85667534 -115.5 143.3125 C-94.92582765 152.18529792 -74.31499517 160.96646839 -53.62866211 169.57495117 C-51.82141998 170.32723472 -50.01420961 171.07959454 -48.20703125 171.83203125 C-46.87353889 172.38714638 -46.87353889 172.38714638 -45.5131073 172.95347595 C-40.18941154 175.17476373 -34.88121531 177.42895563 -29.58482361 179.71456909 C-26.26178827 181.14762574 -22.93373988 182.56881169 -19.60519409 183.98901367 C-18.05175214 184.65584133 -16.50082932 185.32857263 -14.95266724 186.00756836 C-12.82358799 186.94085377 -10.68664739 187.85327683 -8.546875 188.76171875 C-7.34901367 189.28080811 -6.15115234 189.79989746 -4.91699219 190.3347168 C1.8257252 192.26416686 7.30217203 189.82623917 13.421875 187.12890625 C14.56317116 186.63851364 14.56317116 186.63851364 15.7275238 186.13821411 C17.37472837 185.42941078 19.02030403 184.71681239 20.66439819 184.00082397 C24.20919884 182.45734518 27.76198747 180.93266665 31.31437683 179.40675354 C33.18506623 178.60302526 35.05535038 177.79835314 36.92524719 176.99278259 C47.14963897 172.59083648 57.41596308 168.29051698 67.6875 164 C69.4929267 163.24505202 71.29834668 162.49008795 73.10375977 161.73510742 C87.88682726 155.55634064 102.68640005 149.41769806 117.5 143.3125 C112.82587292 140.19641528 107.57451065 139.5914019 102.125 138.4375 C100.88145752 138.17356445 99.63791504 137.90962891 98.35668945 137.63769531 C62.75560762 130.30352853 26.13211177 127.63225867 -10.1796875 128.36669922 Z M-9.71484375 324.58203125 C-10.5413443 324.92992706 -11.36784485 325.27782288 -12.21939087 325.63626099 C-14.96164789 326.79246768 -17.69951312 327.95872145 -20.4375 329.125 C-22.36096978 329.93823676 -24.2847213 330.75080746 -26.20874023 331.56274414 C-30.24984806 333.26943379 -34.28917531 334.98024313 -38.32714844 336.69433594 C-44.36271335 339.25583816 -50.40332307 341.80525763 -56.4453125 344.3515625 C-67.46679269 348.99753044 -78.48406459 353.65340276 -89.5 358.3125 C-90.99804202 358.94597503 -92.49608866 359.57943913 -93.99414062 360.21289062 C-101.16342094 363.24453353 -108.33220175 366.27735437 -115.5 369.3125 C-111.84430036 372.96819964 -106.12512077 373.14925071 -101.1875 374.1875 C-99.9394458 374.45143555 -98.6913916 374.71537109 -97.40551758 374.98730469 C-62.74931353 382.10182454 -26.87007447 385.10586186 8.5 384.3125 C9.38429688 384.29461426 10.26859375 384.27672852 11.1796875 384.25830078 C47.13917344 383.44158169 82.64186531 379.35406915 117.5 370.3125 C114.14706083 368.07720722 110.66410646 366.58712318 106.96875 365.03125 C106.2022261 364.70573654 105.43570221 364.38022308 104.64595032 364.04484558 C102.0986289 362.96423066 99.54937592 361.88825811 97 360.8125 C95.20655916 360.05329525 93.41318464 359.29393383 91.61987305 358.53442383 C74.09470227 351.11855588 56.54557783 343.75940711 38.98121643 336.43688965 C34.19556128 334.44093099 29.41384367 332.43604077 24.63679504 330.41957092 C21.90726121 329.2683025 19.17550096 328.1223912 16.44320679 326.97769165 C14.61808193 326.21085312 12.79592773 325.43695616 10.97387695 324.6628418 C9.36452271 323.99055542 9.36452271 323.99055542 7.72265625 323.3046875 C6.80234619 322.91651855 5.88203613 322.52834961 4.93383789 322.12841797 C-0.58781295 320.27734393 -4.68765949 322.42506643 -9.71484375 324.58203125 Z " fill="#f0b79d" transform="translate(255.5,-0.3125)"></path>            <path d="M0 0 C1.42590325 0.00222313 2.85180657 0.00439962 4.27770996 0.00653076 C24.8200524 0.04905826 45.13178305 0.36788727 65.5 3.3125 C66.20312317 3.41195923 66.90624634 3.51141846 67.63067627 3.6138916 C110.94720764 9.75850028 167.87235119 18.60114507 197.5 54.3125 C203.07375705 62.24577407 206.49867613 69.50011074 205.5 79.3125 C202.43950125 95.437985 191.51827283 106.34978562 178.5 115.3125 C165.40862345 124.0451556 150.47872106 129.80025978 136.00585938 135.82226562 C133.7375377 136.7864603 131.48664483 137.79321761 129.25976562 138.84960938 C122.4108022 142.02245186 117.8664747 142.90999951 110.5 141.3125 C109.49050293 141.11446777 108.48100586 140.91643555 107.44091797 140.71240234 C103.93290146 140.00502028 100.43614042 139.25230372 96.9375 138.5 C85.65117094 136.15465127 74.3858017 134.34796713 62.9375 133 C62.2559787 132.91914154 61.5744574 132.83828308 60.87228394 132.75497437 C38.23435917 130.09884143 15.29767045 128.8011411 -7.5 129.3125 C-8.38429687 129.33038574 -9.26859375 129.34827148 -10.1796875 129.36669922 C-45.05322466 130.15875402 -79.56932729 134.08270269 -113.5 142.3125 C-110.6369064 145.1755936 -107.09992201 146.29584911 -103.41015625 147.8125 C-102.57535736 148.16030014 -101.74055847 148.50810028 -100.88046265 148.86643982 C-98.10967031 150.01966337 -95.33607737 151.16599276 -92.5625 152.3125 C-90.62421168 153.11804504 -88.68614505 153.92412369 -86.74829102 154.73071289 C-82.70318133 156.41388741 -78.65711334 158.09472736 -74.61035156 159.77392578 C-65.95392695 163.36779727 -57.3083429 166.98753395 -48.66320801 170.60845947 C-45.95373443 171.74320094 -43.24398186 172.87727396 -40.53417969 174.01123047 C-26.8410102 179.74277742 -13.16234157 185.50781513 0.5 191.3125 C-0.90037726 194.11325452 -2.4952443 194.33649337 -5.37109375 195.52734375 C-6.40516357 195.95974365 -7.4392334 196.39214355 -8.50463867 196.83764648 C-9.63748291 197.30372314 -10.77032715 197.7697998 -11.9375 198.25 C-14.35943256 199.26027868 -16.78130614 200.27069878 -19.203125 201.28125 C-20.44848688 201.79837179 -21.69392896 202.31530045 -22.93945312 202.83203125 C-28.03152217 204.94930406 -33.10992914 207.09824502 -38.1875 209.25 C-39.21617187 209.68489746 -40.24484375 210.11979492 -41.3046875 210.56787109 C-48.56761232 213.64007987 -55.82400843 216.72737534 -63.078125 219.8203125 C-82.18565834 227.96626901 -101.29779043 236.10085417 -120.45144653 244.13790894 C-122.29432214 244.91138896 -124.13684072 245.68572027 -125.97897339 246.46096802 C-135.07945737 250.28920623 -144.15683834 254.10490978 -153.5 257.3125 C-153.83 256.6525 -154.16 255.9925 -154.5 255.3125 C-156.3253125 254.755625 -156.3253125 254.755625 -158.1875 254.1875 C-169.25251918 250.681228 -178.75932978 243.75344231 -187.5 236.3125 C-189.046875 235.1678125 -189.046875 235.1678125 -190.625 234 C-197.64166622 227.44094245 -203.84490482 219.14513001 -204.78384399 209.35201263 C-204.90404923 205.75160381 -204.92816854 202.1620007 -204.91992188 198.55957031 C-204.92727251 197.17885659 -204.93586161 195.79814899 -204.94558716 194.41744995 C-204.9677116 190.68577707 -204.9707383 186.95432562 -204.96883965 183.22259617 C-204.96871948 180.09676324 -204.97730255 176.97097644 -204.98561716 173.84515643 C-205.00481997 166.46314556 -205.00774705 159.08124775 -205.00097656 151.69921875 C-204.99434351 144.11011795 -205.01717732 136.52150412 -205.05429029 128.93250203 C-205.08509066 122.39459939 -205.09633602 115.85685253 -205.09245348 109.31887889 C-205.09039599 105.4239564 -205.09570837 101.52941274 -205.12034607 97.63455963 C-205.1427817 93.96692978 -205.14059828 90.30008511 -205.12041855 86.6324501 C-205.11544009 84.66433175 -205.13490685 82.69619762 -205.15542603 80.72817993 C-205.03232582 67.55203344 -200.62621495 58.34565932 -191.515625 49.12890625 C-160.50643824 19.53378655 -111.78031953 9.84004843 -70.8125 4.0625 C-69.21498901 3.83590698 -69.21498901 3.83590698 -67.58520508 3.60473633 C-45.10491046 0.64200962 -22.65017 -0.06252561 0 0 Z " fill="#da8760" transform="translate(255.5,-0.3125)"></path>            <path d="M0 0 C0.78246094 0.20141602 1.56492187 0.40283203 2.37109375 0.61035156 C3.68787109 0.95404785 3.68787109 0.95404785 5.03125 1.3046875 C20.80351275 4.82729625 36.5483231 7.7194648 52.59375 9.6171875 C53.27518066 9.6981366 53.95661133 9.77908569 54.65869141 9.86248779 C77.29673375 12.51825184 100.23350728 13.81604802 123.03125 13.3046875 C123.91554688 13.28680176 124.79984375 13.26891602 125.7109375 13.25048828 C158.56534029 12.50429246 191.66456963 9.3738316 223.63232422 1.47290039 C231.38103714 -0.40988199 236.30012013 0.46305222 243.4375 3.55859375 C244.23925659 3.89712875 245.04101318 4.23566376 245.86706543 4.5844574 C247.56359309 5.30328371 249.25793571 6.02728612 250.95019531 6.75610352 C253.49065561 7.84971256 256.03744175 8.92722369 258.5859375 10.00195312 C284.94865996 21.18373887 284.94865996 21.18373887 294.53125 28.4296875 C295.08554687 28.83316406 295.63984375 29.23664063 296.2109375 29.65234375 C306.75500053 37.39950744 316.44230131 47.16463845 319.78125 60.2421875 C319.86375 61.2528125 319.94625 62.2634375 320.03125 63.3046875 C320.14339844 64.26955078 320.14339844 64.26955078 320.2578125 65.25390625 C320.87609438 74.31661692 317.16480974 82.15650878 311.35546875 88.96459961 C280.80251769 122.62125714 228.63499144 132.24965138 185.78125 138.5546875 C184.76772461 138.70574951 183.75419922 138.85681152 182.70996094 139.01245117 C160.38950735 142.09743435 138.03225938 142.67930135 115.53125 142.6171875 C114.10534675 142.61496437 112.67944343 142.61278788 111.25354004 142.61065674 C90.71307291 142.56813313 70.39675359 142.25882173 50.03125 139.3046875 C49.31870056 139.2028717 48.60615112 139.10105591 47.87200928 138.99615479 C28.35744124 136.19456098 8.97922412 132.83819588 -9.96875 127.3046875 C-10.93603027 127.02431641 -11.90331055 126.74394531 -12.89990234 126.45507812 C-39.99775642 118.42805318 -71.82253378 106.45331537 -86.77734375 80.76171875 C-89.66143631 74.81386885 -90.23685505 69.92445504 -90.09375 63.4296875 C-90.08472656 62.6459375 -90.07570312 61.8621875 -90.06640625 61.0546875 C-90.04303063 59.13788695 -90.00716653 57.22124559 -89.96875 55.3046875 C-89.30875 55.3046875 -88.64875 55.3046875 -87.96875 55.3046875 C-87.783125 54.5003125 -87.5975 53.6959375 -87.40625 52.8671875 C-85.42961995 47.96858259 -82.30578216 44.35277503 -78.96875 40.3046875 C-78.07542969 39.09425781 -78.07542969 39.09425781 -77.1640625 37.859375 C-74.47395801 34.72889753 -71.53651973 32.42264672 -68.21875 29.9921875 C-67.65542969 29.55712891 -67.09210938 29.12207031 -66.51171875 28.67382812 C-54.38960209 19.73022825 -39.57086687 14.25739872 -25.78125 8.4296875 C-24.21009654 7.76086263 -22.63913225 7.09159321 -21.06835938 6.421875 C-17.03906312 4.70664723 -13.00797252 2.99643525 -8.96875 1.3046875 C-7.61946411 0.68932129 -7.61946411 0.68932129 -6.24291992 0.06152344 C-3.68669459 -0.78917957 -2.56416643 -0.71542008 0 0 Z " fill="#d5835e" transform="translate(140.96875,369.6953125)"></path>            <path d="M0 0 C0.69963867 0.35674805 1.39927734 0.71349609 2.12011719 1.08105469 C13.72891664 7.1412594 25.56305498 14.82466237 33.4375 25.5 C34.0267778 26.27568832 34.6160556 27.05137665 35.22319031 27.85057068 C42.79970543 40.03715486 41.34145424 53.92570928 41.14725757 67.77608442 C41.10306857 71.46616008 41.09935305 75.1562887 41.09107971 78.84658813 C41.06944735 85.81281748 41.01217664 92.7782646 40.94163328 99.74415171 C40.86299932 107.68375467 40.82480599 115.62339785 40.78976524 123.56329417 C40.71687988 139.87598506 40.59400296 156.18789224 40.4375 172.5 C40.1075 172.5 39.7775 172.5 39.4375 172.5 C39.23125 171.406875 39.025 170.31375 38.8125 169.1875 C34.91560505 153.62755774 22.95587792 143.26255405 9.79296875 135.21875 C3.51668938 131.52563654 -2.88512126 128.38359801 -9.5625 125.5 C-10.78759862 124.96891499 -12.0126962 124.43782756 -13.23779297 123.90673828 C-16.85464522 122.34119777 -20.47494754 120.78378699 -24.09643555 119.22900391 C-25.5962565 118.58459353 -27.09561855 117.93911385 -28.59448242 117.29248047 C-37.14652398 113.60314203 -45.72566088 110.00647485 -54.3828125 106.5703125 C-63.92939151 102.78101338 -73.39605668 98.81766448 -82.84988403 94.80328369 C-87.71057339 92.7394885 -92.57417024 90.68256354 -97.4375 88.625 C-98.43342667 88.20348663 -99.42935333 87.78197327 -100.45545959 87.34768677 C-111.3337981 82.74597251 -122.22812437 78.18260868 -133.125 73.625 C-134.0242923 73.24877502 -134.92358459 72.87255005 -135.85012817 72.48492432 C-145.41781207 68.48248964 -154.98755797 64.4850444 -164.5625 60.5 C-161.86405765 57.15468367 -158.25284378 55.90456515 -154.37890625 54.34765625 C-153.66033447 54.05163513 -152.9417627 53.75561401 -152.20141602 53.45062256 C-150.65328122 52.81373324 -149.10375735 52.18021215 -147.55300903 51.54971313 C-144.26791369 50.21401412 -140.98943661 48.86243986 -137.7106781 47.51127625 C-136.04543927 46.82504624 -134.37987954 46.13959444 -132.71400452 45.45491028 C-125.48545965 42.48062219 -118.30029747 39.41321276 -111.125 36.3125 C-100.95541686 31.93080862 -90.74678763 27.65447649 -80.50830078 23.43652344 C-66.22911894 17.54980943 -51.98679899 11.57501131 -37.74354553 5.60198975 C-36.01594158 4.87860051 -34.28755505 4.15707697 -32.55833435 3.43756104 C-28.96287647 1.93974106 -25.37843767 0.43187046 -21.83251953 -1.18017578 C-20.26219971 -1.88182861 -20.26219971 -1.88182861 -18.66015625 -2.59765625 C-17.80043213 -2.99605713 -16.94070801 -3.39445801 -16.05493164 -3.80493164 C-10.22576317 -5.43052109 -5.11883365 -2.61795336 0 0 Z " fill="#eeaa8b" transform="translate(420.5625,260.5)"></path>            <path d="M0 0 C2.51955201 3.77932801 4.33042022 7.79276556 6.26953125 11.89453125 C9.71539049 18.07840957 14.15776968 22.24069607 19.6875 26.5 C20.52958008 27.17095703 20.52958008 27.17095703 21.38867188 27.85546875 C31.17570444 35.48826063 41.87023784 40.29414119 53.25 45 C54.67608177 45.59563516 56.10186477 46.19198616 57.52734375 46.7890625 C59.63998427 47.67372844 61.75304101 48.55727 63.86804199 49.4362793 C67.20555442 50.82395399 70.53555134 52.22507297 73.84960938 53.66796875 C75.04908203 54.19003906 76.24855469 54.71210938 77.484375 55.25 C78.52819336 55.70890625 79.57201172 56.1678125 80.64746094 56.640625 C83.21363553 57.68114787 85.73117684 58.5917162 88.35888672 59.44702148 C92.93302069 60.94261464 97.344382 62.72047927 101.7734375 64.59765625 C102.59833176 64.94404144 103.42322601 65.29042664 104.27311707 65.64730835 C106.97503674 66.78266115 109.67500406 67.92258086 112.375 69.0625 C114.28102427 69.86435687 116.18719554 70.66586443 118.09350586 71.46704102 C122.06370346 73.13589781 126.03326122 74.80626404 130.00244141 76.47753906 C135.82508981 78.92797586 141.65200164 81.36812781 147.48046875 83.8046875 C148.40729965 84.19215652 149.33413055 84.57962555 150.28904724 84.97883606 C152.13593678 85.75089603 153.98283509 86.52293502 155.82974243 87.29495239 C172.23756063 94.15495111 188.63189082 101.04572241 205 108 C203.59962274 110.80075452 202.0047557 111.02399337 199.12890625 112.21484375 C198.09483643 112.64724365 197.0607666 113.07964355 195.99536133 113.52514648 C194.29609497 114.22426147 194.29609497 114.22426147 192.5625 114.9375 C190.14056744 115.94777868 187.71869386 116.95819878 185.296875 117.96875 C184.05151312 118.48587179 182.80607104 119.00280045 181.56054688 119.51953125 C176.46847783 121.63680406 171.39007086 123.78574502 166.3125 125.9375 C165.28382813 126.37239746 164.25515625 126.80729492 163.1953125 127.25537109 C155.93238768 130.32757987 148.67599157 133.41487534 141.421875 136.5078125 C122.31434166 144.65376901 103.20220957 152.78835417 84.04855347 160.82540894 C82.20567786 161.59888896 80.36315928 162.37322027 78.52102661 163.14846802 C69.42054263 166.97670623 60.34316166 170.79240978 51 174 C50.67 173.34 50.34 172.68 50 172 C48.1746875 171.443125 48.1746875 171.443125 46.3125 170.875 C35.24748082 167.368728 25.74067022 160.44094231 17 153 C15.453125 151.8553125 15.453125 151.8553125 13.875 150.6875 C6.94011437 144.20488952 0.66821665 135.90870509 -0.26956749 126.2129364 C-0.36825564 122.88822338 -0.37104311 119.57605982 -0.34057617 116.25 C-0.34101425 114.99062119 -0.34145233 113.73124237 -0.34190369 112.43370056 C-0.34275975 109.00233484 -0.32519772 105.57128767 -0.30418181 102.13999557 C-0.28534963 98.54590242 -0.28365944 94.9518009 -0.28010559 91.35766602 C-0.27080424 84.56153835 -0.24621656 77.76555653 -0.21605712 70.96949291 C-0.18245338 63.22824194 -0.16601213 55.48698377 -0.15097082 47.74567795 C-0.11966512 31.83036769 -0.06694211 15.9152027 0 0 Z " fill="#e89169" transform="translate(51,83)"></path>        </svg>