        <svg xmlns="http://www.w3.org/2000/svg" fill="none" viewBox="0 0 100 100">
            <g clip-path="url(#a)">
                <mask id="b" width="100" height="100" x="0" y="0" maskUnits="userSpaceOnUse"
                    style="mask-type:luminance">
                    <path fill="#fff" d="M100 0H0v100h100z" />
                </mask>
                <g mask="url(#b)">
                    <path fill="#6d4330"
                        d="M11.2 20.5c-.4 0-.8.1-1.1.3l-7.6 3.1c-.8.3-1.4.8-1.9 1.5s-.7 1.5-.7 2.3v44.4c0 .8.2 1.6.7 2.3s1.1 1.2 1.9 1.5l7.6 3.2c.7.3 1.5.4 2.3.3q1.2-.15 2.1-.9l1.7-1.5c-.3.2-.8.4-1.2.4s-.8 0-1.2-.2q-.6-.3-.9-.9t-.3-1.2V24.8q0-.6.3-1.2t.9-.9c.4-.2.8-.3 1.2-.2.4 0 .8.2 1.2.4l-1.7-1.4c-.4-.4-.9-.7-1.5-.8-.6-.2-1.1-.2-1.7-.1z" />
                    <path fill="#955c42"
                        d="M74 .3c-1-.1-1.9 0-2.8.3q-1.35.45-2.4 1.5L4.2 73.5c-.3.4-.8.6-1.2.7-.5.1-1 0-1.4-.1-.4-.2-.8-.5-1.1-.9s-.4-.9-.4-1.3v.3c0 .8.2 1.6.7 2.3s1.1 1.2 1.9 1.5l7.6 3.2c.7.3 1.5.4 2.3.3q1.2-.15 2.1-.9l1.7-1.5 77.2-63.5c.6-.5 1.3-.8 2-.9.7 0 1.5 0 2.2.3s1.2.8 1.6 1.5c.4.6.6 1.4.6 2.1v-.2c0-1.2-.3-2.3-1-3.3-.6-1-1.5-1.8-2.6-2.3L75.9.9Q75 .45 74.1.3z" />
                    <path fill="#c37856"
                        d="M11.6 20.5q-.75 0-1.5.3l-7.6 3.1c-.8.3-1.4.8-1.9 1.5s-.7 1.5-.7 2.3v.3c0-.5.2-.9.4-1.3.3-.4.7-.7 1.1-.9s.9-.2 1.4-.1.9.4 1.2.7l64.6 71.4c.9.9 2.1 1.5 3.4 1.7s2.6 0 3.7-.5l20.6-9.9c1.1-.5 2-1.3 2.6-2.3s1-2.2 1-3.3v-.2c0 .7-.2 1.5-.6 2.1s-1 1.1-1.6 1.5c-.7.3-1.4.4-2.2.3-.7 0-1.4-.4-2-.9L16.1 22.9l-1.7-1.5c-.8-.7-1.8-1-2.8-1z" />
                    <path fill="#eca482"
                        d="M74 .3c-1.6-.2-3.2.2-4.4 1.1.6-.3 1.2-.5 1.8-.4.6 0 1.3.2 1.8.5s1 .8 1.3 1.3c.3.6.5 1.2.5 1.8v90.6c0 .7-.2 1.4-.6 2s-1 1.1-1.6 1.3-1.4.4-2.1.2c-.7-.1-1.4-.5-1.9-1 .9.9 2.1 1.5 3.4 1.7s2.6 0 3.7-.5L96.5 89c1.1-.5 2-1.3 2.6-2.3s1-2.2 1-3.3v-67c0-1.2-.3-2.3-1-3.3-.6-1-1.5-1.8-2.6-2.3L75.9.9Q75 .45 74.1.3zm-4.4 1.2c-.3.2-.6.4-.8.6.3-.2.5-.4.8-.6" />
                    <path fill="url(#c)" fill-rule="evenodd"
                        d="M73.6.3c-.8 0-1.6 0-2.4.3-.9.3-1.8.8-2.4 1.5L35.6 38.8 16.2 22.9l-1.7-1.5q-.75-.6-1.8-.9c-.7-.2-1.3-.1-2 0-.2 0-.4.1-.6.2l-7.6 3.2c-.7.3-1.3.8-1.8 1.4s-.7 1.4-.8 2.1v45.1c0 .8.3 1.5.8 2.1s1.1 1.1 1.8 1.4l7.6 3.1c.2 0 .4.1.6.2.6.2 1.3.2 2 0q1.05-.3 1.8-.9l1.7-1.4 19.4-15.9 33.2 36.7c.8.8 1.9 1.4 3 1.7 1.4.3 2.8.2 4.1-.5l20.6-9.9c1.1-.5 2-1.3 2.6-2.3s1-2.2 1-3.3V16.4c0-1.2-.3-2.3-1-3.3-.6-1-1.5-1.8-2.6-2.3L75.9.9c-.7-.3-1.5-.6-2.3-.6M75 28.8v42.3L49.2 49.9 75 28.7zm-62.5 6.9L25.4 50 12.5 64.3z"
                        clip-rule="evenodd" opacity=".2" />
                </g>
            </g>
            <defs>
                <linearGradient id="c" x1="50" x2="50" y1="0" y2="74.6" gradientUnits="userSpaceOnUse">
                    <stop stop-color="#fff" />
                    <stop offset="1" stop-color="#fff" stop-opacity="0" />
                </linearGradient>
                <clipPath id="a">
                    <path fill="#fff" d="M0 0h100v100H0z" />
                </clipPath>
            </defs>
        </svg>