        <svg xmlns="http://www.w3.org/2000/svg" fill="none" viewBox="0 0 100 100">
            <g clip-path="url(#a)">
                <path fill="#cf805b"
                    d="M.933 35.48s-2.403-1.803.5-4.106l6.81-6.108s1.903-2.003 4.006-.3L75.134 72.63v22.831s0 3.605-4.606 3.204z" />
                <path fill="#a66649"
                    d="M17.055 50.2.933 64.92s-1.702 1.201 0 3.504l7.51 6.81s1.803 1.902 4.406-.3l17.224-13.018z" />
                <path fill="#a9684a" d="m45.594 50.3 29.74-22.731-.2-22.631S73.832-.07 69.627 2.535L30.073 38.584z" />
                <path fill="#e9936b"
                    d="M70.528 98.766c1.702 1.802 3.805 1.201 3.805 1.201l23.132-11.415c3.004-2.003 2.503-4.507 2.503-4.507V15.754c0-3.004-3.104-4.006-3.104-4.006L76.937 2.034c-4.406-2.704-7.31.5-7.31.5s3.705-2.703 5.507 2.404V95.06c0 .6-.1 1.201-.4 1.802-.501 1.102-1.703 2.103-4.406 1.602z" />
            </g>
            <defs>
                <clipPath id="a">
                    <path fill="#fff" d="M0 0h100v100H0z" />
                </clipPath>
            </defs>
        </svg>